%TF.GenerationSoftware,KiCad,Pcbnew,(5.1.10)-1*%
%TF.CreationDate,2021-12-12T15:32:54+02:00*%
%TF.ProjectId,P1_DCE_NEATA_ADRIAN_STAB_ERS_kicad,50315f44-4345-45f4-9e45-4154415f4144,rev?*%
%TF.SameCoordinates,Original*%
%TF.FileFunction,Copper,L2,Bot*%
%TF.FilePolarity,Positive*%
%FSLAX46Y46*%
G04 Gerber Fmt 4.6, Leading zero omitted, Abs format (unit mm)*
G04 Created by KiCad (PCBNEW (5.1.10)-1) date 2021-12-12 15:32:54*
%MOMM*%
%LPD*%
G01*
G04 APERTURE LIST*
%TA.AperFunction,ViaPad*%
%ADD10C,0.800000*%
%TD*%
%TA.AperFunction,Conductor*%
%ADD11C,0.508000*%
%TD*%
%TA.AperFunction,Conductor*%
%ADD12C,0.254000*%
%TD*%
%TA.AperFunction,Conductor*%
%ADD13C,0.100000*%
%TD*%
G04 APERTURE END LIST*
D10*
%TO.N,Vout*%
X25600000Y19600000D03*
X25050000Y33300000D03*
X11000000Y6500000D03*
%TO.N,GND*%
X27100000Y28050000D03*
X22550000Y12450000D03*
X18023747Y10880816D03*
X27650000Y9350000D03*
X25100000Y8400000D03*
X32300000Y10100000D03*
X22550000Y12450000D03*
X2000000Y16850000D03*
X3200000Y8100000D03*
X29150000Y31800000D03*
%TO.N,VDC*%
X2600000Y29000000D03*
X5500000Y29000000D03*
X10050000Y28350000D03*
X14850000Y28450000D03*
X12950000Y28250000D03*
X17100000Y28700000D03*
X21650000Y28550000D03*
X30500000Y17700000D03*
X28450000Y10600000D03*
X29350000Y11400000D03*
X24400000Y20050000D03*
X26650000Y25550000D03*
X29350000Y17550000D03*
X27000000Y24450000D03*
X27100000Y26700000D03*
X23250000Y28450000D03*
X23950000Y27600000D03*
X16500000Y37550000D03*
X16400000Y32000000D03*
X17350000Y36100000D03*
X17600000Y33500000D03*
X33650000Y25750000D03*
X34000000Y24800000D03*
X32700000Y23150000D03*
X33750000Y23600000D03*
X6300000Y36400000D03*
X8000000Y38100000D03*
X8000000Y35000000D03*
X9500000Y36400000D03*
X6800000Y35300000D03*
X6800000Y37600000D03*
X9200000Y37800000D03*
X9100000Y35300000D03*
%TO.N,Vref*%
X20000000Y30000000D03*
X5000000Y22000000D03*
X19500000Y24500000D03*
%TO.N,Net-(Q2-Pad3)*%
X7500000Y14500000D03*
X5041200Y16000000D03*
%TO.N,Net-(Q2-Pad1)*%
X3350000Y11750000D03*
X2958801Y21041199D03*
%TO.N,Vref2*%
X23000000Y3500000D03*
X22150000Y3750000D03*
X9300000Y19150000D03*
X32250000Y8400000D03*
X26150000Y6150000D03*
%TO.N,Net-(Q4-Pad3)*%
X13500000Y21500000D03*
X9000000Y21500000D03*
%TO.N,Vdif*%
X18500000Y13500000D03*
X26500000Y13500000D03*
%TO.N,Net-(Q6-Pad2)*%
X14500000Y16500000D03*
X12797026Y14797026D03*
%TO.N,Vrsc1*%
X29500000Y3500000D03*
X38000000Y8500000D03*
%TO.N,Net-(Q14-Pad3)*%
X27000000Y16000000D03*
X29008800Y16000000D03*
%TO.N,Net-(Q14-Pad1)*%
X30000000Y14000000D03*
X22000000Y14500000D03*
%TD*%
D11*
%TO.N,Vout*%
X25600000Y19600000D02*
X21950000Y15950000D01*
X21950000Y15950000D02*
X18250000Y15950000D01*
X18250000Y15950000D02*
X15050000Y19150000D01*
X15050000Y21369026D02*
X13619026Y22800000D01*
X15050000Y19150000D02*
X15050000Y21369026D01*
X8880974Y22800000D02*
X6700000Y20619026D01*
X13619026Y22800000D02*
X8880974Y22800000D01*
X6700000Y20619026D02*
X6700000Y20050000D01*
X6700000Y20050000D02*
X3850000Y17200000D01*
X3850000Y13650000D02*
X11000000Y6500000D01*
X3850000Y17200000D02*
X3850000Y13650000D01*
X25600000Y32750000D02*
X25600000Y19600000D01*
X25050000Y33300000D02*
X25600000Y32750000D01*
%TO.N,GND*%
X20980816Y10880816D02*
X18023747Y10880816D01*
X22550000Y12450000D02*
X20980816Y10880816D01*
X26050000Y9350000D02*
X25100000Y8400000D01*
X27650000Y9350000D02*
X26050000Y9350000D01*
X32300000Y10100000D02*
X32700000Y9700000D01*
X31550000Y9350000D02*
X27650000Y9350000D01*
X32300000Y10100000D02*
X31550000Y9350000D01*
X31841199Y9641199D02*
X25358801Y9641199D01*
X32300000Y10100000D02*
X31841199Y9641199D01*
X35610000Y4270000D02*
X33220000Y4270000D01*
X35610000Y4270000D02*
X33170000Y4270000D01*
X31441199Y2541199D02*
X26908801Y2541199D01*
X33170000Y4270000D02*
X31441199Y2541199D01*
X25100000Y4350000D02*
X25100000Y8400000D01*
X26908801Y2541199D02*
X25100000Y4350000D01*
X2000000Y9300000D02*
X3200000Y8100000D01*
X2000000Y16850000D02*
X2000000Y9300000D01*
X27100000Y29750000D02*
X29150000Y31800000D01*
X27100000Y28050000D02*
X27100000Y29750000D01*
%TO.N,VDC*%
X13200000Y33590000D02*
X13200000Y33850000D01*
X13200000Y33850000D02*
X13450000Y33600000D01*
X13450000Y33600000D02*
X13450000Y31600000D01*
X13450000Y31600000D02*
X13250000Y31800000D01*
X2600000Y29000000D02*
X5500000Y29000000D01*
X14850000Y28450000D02*
X14150000Y27750000D01*
X12950000Y28250000D02*
X13500000Y27700000D01*
X13500000Y27700000D02*
X17200000Y27700000D01*
X17200000Y27700000D02*
X16900000Y27400000D01*
X20458801Y25991199D02*
X19312810Y27137190D01*
X20458801Y24039775D02*
X20458801Y25991199D01*
X19960225Y23541199D02*
X20458801Y24039775D01*
X17100000Y25480974D02*
X19039775Y23541199D01*
X19039775Y23541199D02*
X19960225Y23541199D01*
X17100000Y28700000D02*
X17100000Y25480974D01*
X19039775Y23541199D02*
X16600000Y25980974D01*
X34000000Y24800000D02*
X33250000Y24800000D01*
X28450000Y10600000D02*
X28450000Y11150000D01*
X8200000Y33700000D02*
X9300000Y33700000D01*
%TO.N,Vref*%
X5000000Y22000000D02*
X8000000Y25000000D01*
X8000000Y25000000D02*
X8000000Y28500000D01*
X8000000Y28500000D02*
X9500000Y30000000D01*
X18500000Y25500000D02*
X18500000Y30000000D01*
X19500000Y24500000D02*
X18500000Y25500000D01*
X18500000Y30000000D02*
X20000000Y30000000D01*
X9500000Y30000000D02*
X18500000Y30000000D01*
%TO.N,Net-(Q2-Pad3)*%
X6541200Y14500000D02*
X5041200Y16000000D01*
X7500000Y14500000D02*
X6541200Y14500000D01*
%TO.N,Net-(Q2-Pad1)*%
X2958801Y12141199D02*
X2958801Y21041199D01*
X3350000Y11750000D02*
X2958801Y12141199D01*
%TO.N,Vref2*%
X22150000Y3750000D02*
X10650000Y15250000D01*
X10650000Y15250000D02*
X10400000Y15250000D01*
X9300000Y16350000D02*
X9300000Y19150000D01*
X10400000Y15250000D02*
X9300000Y16350000D01*
X32250000Y8400000D02*
X28050000Y8400000D01*
X28400000Y8400000D02*
X26150000Y6150000D01*
X32250000Y8400000D02*
X28400000Y8400000D01*
%TO.N,Net-(Q4-Pad3)*%
X13500000Y21500000D02*
X9000000Y21500000D01*
%TO.N,Vdif*%
X18500000Y13500000D02*
X26500000Y13500000D01*
%TO.N,Net-(Q6-Pad2)*%
X14500000Y16500000D02*
X12797026Y14797026D01*
%TO.N,Vrsc1*%
X34500000Y8500000D02*
X38000000Y8500000D01*
X29500000Y3500000D02*
X34500000Y8500000D01*
%TO.N,Net-(Q14-Pad3)*%
X27000000Y16000000D02*
X29008800Y16000000D01*
%TO.N,Net-(Q14-Pad1)*%
X29500000Y14500000D02*
X22000000Y14500000D01*
X30000000Y14000000D02*
X29500000Y14500000D01*
%TD*%
D12*
%TO.N,VDC*%
X38673000Y26233606D02*
X38604171Y9072172D01*
X38530242Y9146101D01*
X38394005Y9237132D01*
X38242627Y9299835D01*
X38081925Y9331800D01*
X37918075Y9331800D01*
X37757373Y9299835D01*
X37605995Y9237132D01*
X37529172Y9185800D01*
X34533686Y9185800D01*
X34500000Y9189118D01*
X34466314Y9185800D01*
X34466311Y9185800D01*
X34365560Y9175877D01*
X34236286Y9136662D01*
X34117147Y9072981D01*
X34012720Y8987280D01*
X33991242Y8961109D01*
X29347993Y4317860D01*
X29257373Y4299835D01*
X29105995Y4237132D01*
X28969758Y4146101D01*
X28853899Y4030242D01*
X28762868Y3894005D01*
X28700165Y3742627D01*
X28668200Y3581925D01*
X28668200Y3418075D01*
X28700165Y3257373D01*
X28712746Y3226999D01*
X27192869Y3226999D01*
X25785800Y4634067D01*
X25785800Y5400522D01*
X25907373Y5350165D01*
X26068075Y5318200D01*
X26231925Y5318200D01*
X26392627Y5350165D01*
X26544005Y5412868D01*
X26680242Y5503899D01*
X26796101Y5619758D01*
X26887132Y5755995D01*
X26949835Y5907373D01*
X26967860Y5997993D01*
X28684067Y7714200D01*
X31779172Y7714200D01*
X31855995Y7662868D01*
X32007373Y7600165D01*
X32168075Y7568200D01*
X32331925Y7568200D01*
X32492627Y7600165D01*
X32644005Y7662868D01*
X32780242Y7753899D01*
X32896101Y7869758D01*
X32987132Y8005995D01*
X33049835Y8157373D01*
X33081800Y8318075D01*
X33081800Y8481925D01*
X33049835Y8642627D01*
X32987132Y8794005D01*
X32896101Y8930242D01*
X32805108Y9021235D01*
X32834440Y9024124D01*
X32963713Y9063339D01*
X33082853Y9127020D01*
X33187279Y9212721D01*
X33272980Y9317147D01*
X33336661Y9436287D01*
X33375876Y9565560D01*
X33389117Y9700001D01*
X33375876Y9834442D01*
X33336661Y9963715D01*
X33272980Y10082855D01*
X33208755Y10161112D01*
X33117860Y10252007D01*
X33099835Y10342627D01*
X33037132Y10494005D01*
X32946101Y10630242D01*
X32830242Y10746101D01*
X32694005Y10837132D01*
X32542627Y10899835D01*
X32381925Y10931800D01*
X32218075Y10931800D01*
X32057373Y10899835D01*
X31905995Y10837132D01*
X31769758Y10746101D01*
X31653899Y10630242D01*
X31562868Y10494005D01*
X31500165Y10342627D01*
X31497056Y10326999D01*
X25325112Y10326999D01*
X25224361Y10317076D01*
X25095087Y10277861D01*
X24975948Y10214180D01*
X24871521Y10128479D01*
X24785820Y10024052D01*
X24722139Y9904913D01*
X24682924Y9775639D01*
X24669683Y9641199D01*
X24682924Y9506759D01*
X24722139Y9377485D01*
X24785820Y9258346D01*
X24839809Y9192560D01*
X24705995Y9137132D01*
X24569758Y9046101D01*
X24453899Y8930242D01*
X24362868Y8794005D01*
X24300165Y8642627D01*
X24268200Y8481925D01*
X24268200Y8318075D01*
X24300165Y8157373D01*
X24362868Y8005995D01*
X24414201Y7929170D01*
X24414200Y4383679D01*
X24410883Y4350000D01*
X24414200Y4316321D01*
X24414200Y4316312D01*
X24424123Y4215561D01*
X24463338Y4086287D01*
X24527019Y3967148D01*
X24612720Y3862721D01*
X24638887Y3841246D01*
X26400048Y2080084D01*
X26421521Y2053919D01*
X26525948Y1968218D01*
X26645087Y1904537D01*
X26774361Y1865322D01*
X26875112Y1855399D01*
X26875115Y1855399D01*
X26908801Y1852081D01*
X26942487Y1855399D01*
X31407520Y1855399D01*
X31441199Y1852082D01*
X31474878Y1855399D01*
X31474888Y1855399D01*
X31575639Y1865322D01*
X31704913Y1904537D01*
X31824052Y1968218D01*
X31928479Y2053919D01*
X31949957Y2080090D01*
X33454067Y3584200D01*
X35643689Y3584200D01*
X35744440Y3594123D01*
X35873714Y3633338D01*
X35992853Y3697019D01*
X36097280Y3782720D01*
X36182981Y3887147D01*
X36246662Y4006286D01*
X36285877Y4135560D01*
X36299118Y4270000D01*
X36285877Y4404440D01*
X36246662Y4533714D01*
X36182981Y4652853D01*
X36097280Y4757280D01*
X35992853Y4842981D01*
X35873714Y4906662D01*
X35744440Y4945877D01*
X35643689Y4955800D01*
X33203686Y4955800D01*
X33170000Y4959118D01*
X33136314Y4955800D01*
X33136311Y4955800D01*
X33035560Y4945877D01*
X32906286Y4906662D01*
X32787147Y4842981D01*
X32682720Y4757280D01*
X32661242Y4731109D01*
X31157132Y3226999D01*
X30287254Y3226999D01*
X30299835Y3257373D01*
X30317860Y3347993D01*
X34784067Y7814200D01*
X37529172Y7814200D01*
X37605995Y7762868D01*
X37757373Y7700165D01*
X37918075Y7668200D01*
X38081925Y7668200D01*
X38242627Y7700165D01*
X38394005Y7762868D01*
X38530242Y7853899D01*
X38599562Y7923219D01*
X38573508Y1427000D01*
X1227854Y1427000D01*
X1314200Y14309859D01*
X1314201Y9333689D01*
X1310883Y9300000D01*
X1314201Y9266311D01*
X1317075Y9237132D01*
X1324124Y9165560D01*
X1363339Y9036286D01*
X1427020Y8917147D01*
X1473007Y8861112D01*
X1512721Y8812720D01*
X1538886Y8791247D01*
X2382140Y7947992D01*
X2400165Y7857373D01*
X2462868Y7705995D01*
X2553899Y7569758D01*
X2669758Y7453899D01*
X2805995Y7362868D01*
X2957373Y7300165D01*
X3118075Y7268200D01*
X3281925Y7268200D01*
X3442627Y7300165D01*
X3594005Y7362868D01*
X3730242Y7453899D01*
X3846101Y7569758D01*
X3937132Y7705995D01*
X3999835Y7857373D01*
X4031800Y8018075D01*
X4031800Y8181925D01*
X3999835Y8342627D01*
X3937132Y8494005D01*
X3846101Y8630242D01*
X3730242Y8746101D01*
X3594005Y8837132D01*
X3442627Y8899835D01*
X3352008Y8917860D01*
X2685800Y9584067D01*
X2685800Y11246845D01*
X2703899Y11219758D01*
X2819758Y11103899D01*
X2955995Y11012868D01*
X3107373Y10950165D01*
X3268075Y10918200D01*
X3431925Y10918200D01*
X3592627Y10950165D01*
X3744005Y11012868D01*
X3880242Y11103899D01*
X3996101Y11219758D01*
X4087132Y11355995D01*
X4149835Y11507373D01*
X4181800Y11668075D01*
X4181800Y11831925D01*
X4149835Y11992627D01*
X4087132Y12144005D01*
X3996101Y12280242D01*
X3880242Y12396101D01*
X3744005Y12487132D01*
X3644601Y12528307D01*
X3644601Y12885532D01*
X10182140Y6347992D01*
X10200165Y6257373D01*
X10262868Y6105995D01*
X10353899Y5969758D01*
X10469758Y5853899D01*
X10605995Y5762868D01*
X10757373Y5700165D01*
X10918075Y5668200D01*
X11081925Y5668200D01*
X11242627Y5700165D01*
X11394005Y5762868D01*
X11530242Y5853899D01*
X11646101Y5969758D01*
X11737132Y6105995D01*
X11799835Y6257373D01*
X11831800Y6418075D01*
X11831800Y6581925D01*
X11799835Y6742627D01*
X11737132Y6894005D01*
X11646101Y7030242D01*
X11530242Y7146101D01*
X11394005Y7237132D01*
X11242627Y7299835D01*
X11152008Y7317860D01*
X4535800Y13934067D01*
X4535800Y15337300D01*
X4647195Y15262868D01*
X4798573Y15200165D01*
X4889193Y15182140D01*
X6032444Y14038888D01*
X6053920Y14012720D01*
X6080085Y13991247D01*
X6080087Y13991245D01*
X6158345Y13927020D01*
X6158347Y13927019D01*
X6277486Y13863338D01*
X6406760Y13824123D01*
X6507511Y13814200D01*
X6507520Y13814200D01*
X6541199Y13810883D01*
X6574878Y13814200D01*
X7029172Y13814200D01*
X7105995Y13762868D01*
X7257373Y13700165D01*
X7418075Y13668200D01*
X7581925Y13668200D01*
X7742627Y13700165D01*
X7894005Y13762868D01*
X8030242Y13853899D01*
X8146101Y13969758D01*
X8237132Y14105995D01*
X8299835Y14257373D01*
X8331800Y14418075D01*
X8331800Y14581925D01*
X8299835Y14742627D01*
X8237132Y14894005D01*
X8146101Y15030242D01*
X8030242Y15146101D01*
X7894005Y15237132D01*
X7742627Y15299835D01*
X7581925Y15331800D01*
X7418075Y15331800D01*
X7257373Y15299835D01*
X7105995Y15237132D01*
X7029172Y15185800D01*
X6825268Y15185800D01*
X5859060Y16152007D01*
X5841035Y16242627D01*
X5778332Y16394005D01*
X5687301Y16530242D01*
X5571442Y16646101D01*
X5435205Y16737132D01*
X5283827Y16799835D01*
X5123125Y16831800D01*
X4959275Y16831800D01*
X4798573Y16799835D01*
X4647195Y16737132D01*
X4535800Y16662700D01*
X4535800Y16915933D01*
X6851792Y19231925D01*
X8468200Y19231925D01*
X8468200Y19068075D01*
X8500165Y18907373D01*
X8562868Y18755995D01*
X8614201Y18679170D01*
X8614200Y16383679D01*
X8610883Y16350000D01*
X8614200Y16316321D01*
X8614200Y16316312D01*
X8624123Y16215561D01*
X8663338Y16086287D01*
X8727019Y15967148D01*
X8812720Y15862721D01*
X8838886Y15841246D01*
X9891244Y14788888D01*
X9912720Y14762720D01*
X10017147Y14677019D01*
X10072604Y14647377D01*
X10136285Y14613338D01*
X10175500Y14601443D01*
X10265560Y14574123D01*
X10365892Y14564241D01*
X21332140Y3597992D01*
X21350165Y3507373D01*
X21412868Y3355995D01*
X21503899Y3219758D01*
X21619758Y3103899D01*
X21755995Y3012868D01*
X21907373Y2950165D01*
X22068075Y2918200D01*
X22231925Y2918200D01*
X22376667Y2946990D01*
X22469758Y2853899D01*
X22605995Y2762868D01*
X22757373Y2700165D01*
X22918075Y2668200D01*
X23081925Y2668200D01*
X23242627Y2700165D01*
X23394005Y2762868D01*
X23530242Y2853899D01*
X23646101Y2969758D01*
X23737132Y3105995D01*
X23799835Y3257373D01*
X23831800Y3418075D01*
X23831800Y3581925D01*
X23799835Y3742627D01*
X23737132Y3894005D01*
X23646101Y4030242D01*
X23530242Y4146101D01*
X23394005Y4237132D01*
X23242627Y4299835D01*
X23081925Y4331800D01*
X22918075Y4331800D01*
X22773333Y4303010D01*
X22680242Y4396101D01*
X22544005Y4487132D01*
X22392627Y4549835D01*
X22302008Y4567860D01*
X12900379Y13969488D01*
X13039653Y13997191D01*
X13191031Y14059894D01*
X13327268Y14150925D01*
X13443127Y14266784D01*
X13534158Y14403021D01*
X13596861Y14554399D01*
X13614886Y14645019D01*
X14652008Y15682140D01*
X14742627Y15700165D01*
X14894005Y15762868D01*
X15030242Y15853899D01*
X15146101Y15969758D01*
X15237132Y16105995D01*
X15299835Y16257373D01*
X15331800Y16418075D01*
X15331800Y16581925D01*
X15299835Y16742627D01*
X15237132Y16894005D01*
X15146101Y17030242D01*
X15030242Y17146101D01*
X14894005Y17237132D01*
X14742627Y17299835D01*
X14581925Y17331800D01*
X14418075Y17331800D01*
X14257373Y17299835D01*
X14105995Y17237132D01*
X13969758Y17146101D01*
X13853899Y17030242D01*
X13762868Y16894005D01*
X13700165Y16742627D01*
X13682140Y16652008D01*
X12645019Y15614886D01*
X12554399Y15596861D01*
X12403021Y15534158D01*
X12266784Y15443127D01*
X12150925Y15327268D01*
X12059894Y15191031D01*
X11997191Y15039653D01*
X11969488Y14900379D01*
X11158758Y15711109D01*
X11137280Y15737280D01*
X11032853Y15822981D01*
X10913714Y15886662D01*
X10784440Y15925877D01*
X10684109Y15935759D01*
X9985800Y16634067D01*
X9985800Y18679172D01*
X10037132Y18755995D01*
X10099835Y18907373D01*
X10131800Y19068075D01*
X10131800Y19231925D01*
X10099835Y19392627D01*
X10037132Y19544005D01*
X9946101Y19680242D01*
X9830242Y19796101D01*
X9694005Y19887132D01*
X9542627Y19949835D01*
X9381925Y19981800D01*
X9218075Y19981800D01*
X9057373Y19949835D01*
X8905995Y19887132D01*
X8769758Y19796101D01*
X8653899Y19680242D01*
X8562868Y19544005D01*
X8500165Y19392627D01*
X8468200Y19231925D01*
X6851792Y19231925D01*
X7161109Y19541242D01*
X7187280Y19562720D01*
X7272981Y19667147D01*
X7336662Y19786286D01*
X7375877Y19915560D01*
X7385800Y20016311D01*
X7385800Y20016314D01*
X7389118Y20050000D01*
X7385800Y20083686D01*
X7385800Y20334959D01*
X8231812Y21180971D01*
X8262868Y21105995D01*
X8353899Y20969758D01*
X8469758Y20853899D01*
X8605995Y20762868D01*
X8757373Y20700165D01*
X8918075Y20668200D01*
X9081925Y20668200D01*
X9242627Y20700165D01*
X9394005Y20762868D01*
X9470828Y20814200D01*
X13029172Y20814200D01*
X13105995Y20762868D01*
X13257373Y20700165D01*
X13418075Y20668200D01*
X13581925Y20668200D01*
X13742627Y20700165D01*
X13894005Y20762868D01*
X14030242Y20853899D01*
X14146101Y20969758D01*
X14237132Y21105995D01*
X14268188Y21180971D01*
X14364201Y21084958D01*
X14364200Y19183679D01*
X14360883Y19150000D01*
X14364200Y19116321D01*
X14364200Y19116312D01*
X14374123Y19015561D01*
X14413338Y18886287D01*
X14477019Y18767148D01*
X14562720Y18662721D01*
X14588887Y18641246D01*
X17741247Y15488885D01*
X17762720Y15462720D01*
X17788885Y15441247D01*
X17788887Y15441245D01*
X17867145Y15377020D01*
X17867147Y15377019D01*
X17986286Y15313338D01*
X18115560Y15274123D01*
X18216311Y15264200D01*
X18216320Y15264200D01*
X18249999Y15260883D01*
X18283678Y15264200D01*
X21671343Y15264200D01*
X21605995Y15237132D01*
X21469758Y15146101D01*
X21353899Y15030242D01*
X21262868Y14894005D01*
X21200165Y14742627D01*
X21168200Y14581925D01*
X21168200Y14418075D01*
X21200165Y14257373D01*
X21229812Y14185800D01*
X18970828Y14185800D01*
X18894005Y14237132D01*
X18742627Y14299835D01*
X18581925Y14331800D01*
X18418075Y14331800D01*
X18257373Y14299835D01*
X18105995Y14237132D01*
X17969758Y14146101D01*
X17853899Y14030242D01*
X17762868Y13894005D01*
X17700165Y13742627D01*
X17668200Y13581925D01*
X17668200Y13418075D01*
X17700165Y13257373D01*
X17762868Y13105995D01*
X17853899Y12969758D01*
X17969758Y12853899D01*
X18105995Y12762868D01*
X18257373Y12700165D01*
X18418075Y12668200D01*
X18581925Y12668200D01*
X18742627Y12700165D01*
X18894005Y12762868D01*
X18970828Y12814200D01*
X21800522Y12814200D01*
X21750165Y12692627D01*
X21732140Y12602008D01*
X20696749Y11566616D01*
X18494575Y11566616D01*
X18417752Y11617948D01*
X18266374Y11680651D01*
X18105672Y11712616D01*
X17941822Y11712616D01*
X17781120Y11680651D01*
X17629742Y11617948D01*
X17493505Y11526917D01*
X17377646Y11411058D01*
X17286615Y11274821D01*
X17223912Y11123443D01*
X17191947Y10962741D01*
X17191947Y10798891D01*
X17223912Y10638189D01*
X17286615Y10486811D01*
X17377646Y10350574D01*
X17493505Y10234715D01*
X17629742Y10143684D01*
X17781120Y10080981D01*
X17941822Y10049016D01*
X18105672Y10049016D01*
X18266374Y10080981D01*
X18417752Y10143684D01*
X18494575Y10195016D01*
X20947137Y10195016D01*
X20980816Y10191699D01*
X21014495Y10195016D01*
X21014505Y10195016D01*
X21115256Y10204939D01*
X21244530Y10244154D01*
X21363669Y10307835D01*
X21468096Y10393536D01*
X21489574Y10419707D01*
X22702008Y11632140D01*
X22792627Y11650165D01*
X22944005Y11712868D01*
X23080242Y11803899D01*
X23196101Y11919758D01*
X23287132Y12055995D01*
X23349835Y12207373D01*
X23381800Y12368075D01*
X23381800Y12531925D01*
X23349835Y12692627D01*
X23299478Y12814200D01*
X26029172Y12814200D01*
X26105995Y12762868D01*
X26257373Y12700165D01*
X26418075Y12668200D01*
X26581925Y12668200D01*
X26742627Y12700165D01*
X26894005Y12762868D01*
X27030242Y12853899D01*
X27146101Y12969758D01*
X27237132Y13105995D01*
X27299835Y13257373D01*
X27331800Y13418075D01*
X27331800Y13581925D01*
X27299835Y13742627D01*
X27270188Y13814200D01*
X29188862Y13814200D01*
X29200165Y13757373D01*
X29262868Y13605995D01*
X29353899Y13469758D01*
X29469758Y13353899D01*
X29605995Y13262868D01*
X29757373Y13200165D01*
X29918075Y13168200D01*
X30081925Y13168200D01*
X30242627Y13200165D01*
X30394005Y13262868D01*
X30530242Y13353899D01*
X30646101Y13469758D01*
X30737132Y13605995D01*
X30799835Y13757373D01*
X30831800Y13918075D01*
X30831800Y14081925D01*
X30799835Y14242627D01*
X30737132Y14394005D01*
X30646101Y14530242D01*
X30530242Y14646101D01*
X30394005Y14737132D01*
X30242627Y14799835D01*
X30152007Y14817860D01*
X30008758Y14961109D01*
X29987280Y14987280D01*
X29882853Y15072981D01*
X29763714Y15136662D01*
X29634440Y15175877D01*
X29533689Y15185800D01*
X29533679Y15185800D01*
X29500000Y15189117D01*
X29466321Y15185800D01*
X29179208Y15185800D01*
X29251427Y15200165D01*
X29402805Y15262868D01*
X29539042Y15353899D01*
X29654901Y15469758D01*
X29745932Y15605995D01*
X29808635Y15757373D01*
X29840600Y15918075D01*
X29840600Y16081925D01*
X29808635Y16242627D01*
X29745932Y16394005D01*
X29654901Y16530242D01*
X29539042Y16646101D01*
X29402805Y16737132D01*
X29251427Y16799835D01*
X29090725Y16831800D01*
X28926875Y16831800D01*
X28766173Y16799835D01*
X28614795Y16737132D01*
X28537972Y16685800D01*
X27470828Y16685800D01*
X27394005Y16737132D01*
X27242627Y16799835D01*
X27081925Y16831800D01*
X26918075Y16831800D01*
X26757373Y16799835D01*
X26605995Y16737132D01*
X26469758Y16646101D01*
X26353899Y16530242D01*
X26262868Y16394005D01*
X26200165Y16242627D01*
X26168200Y16081925D01*
X26168200Y15918075D01*
X26200165Y15757373D01*
X26262868Y15605995D01*
X26353899Y15469758D01*
X26469758Y15353899D01*
X26605995Y15262868D01*
X26757373Y15200165D01*
X26829592Y15185800D01*
X22470828Y15185800D01*
X22394005Y15237132D01*
X22242627Y15299835D01*
X22198280Y15308656D01*
X22213714Y15313338D01*
X22332853Y15377019D01*
X22437280Y15462720D01*
X22458758Y15488891D01*
X25752007Y18782140D01*
X25842627Y18800165D01*
X25994005Y18862868D01*
X26130242Y18953899D01*
X26246101Y19069758D01*
X26337132Y19205995D01*
X26399835Y19357373D01*
X26431800Y19518075D01*
X26431800Y19681925D01*
X26399835Y19842627D01*
X26337132Y19994005D01*
X26285800Y20070828D01*
X26285800Y27879592D01*
X26300165Y27807373D01*
X26362868Y27655995D01*
X26453899Y27519758D01*
X26569758Y27403899D01*
X26705995Y27312868D01*
X26857373Y27250165D01*
X27018075Y27218200D01*
X27181925Y27218200D01*
X27342627Y27250165D01*
X27494005Y27312868D01*
X27630242Y27403899D01*
X27746101Y27519758D01*
X27837132Y27655995D01*
X27899835Y27807373D01*
X27931800Y27968075D01*
X27931800Y28131925D01*
X27899835Y28292627D01*
X27837132Y28444005D01*
X27785800Y28520828D01*
X27785800Y29465933D01*
X29302007Y30982140D01*
X29392627Y31000165D01*
X29544005Y31062868D01*
X29680242Y31153899D01*
X29796101Y31269758D01*
X29887132Y31405995D01*
X29949835Y31557373D01*
X29981800Y31718075D01*
X29981800Y31881925D01*
X29949835Y32042627D01*
X29887132Y32194005D01*
X29796101Y32330242D01*
X29680242Y32446101D01*
X29544005Y32537132D01*
X29392627Y32599835D01*
X29231925Y32631800D01*
X29068075Y32631800D01*
X28907373Y32599835D01*
X28755995Y32537132D01*
X28619758Y32446101D01*
X28503899Y32330242D01*
X28412868Y32194005D01*
X28350165Y32042627D01*
X28332140Y31952007D01*
X26638886Y30258753D01*
X26612721Y30237280D01*
X26591248Y30211115D01*
X26591245Y30211112D01*
X26527020Y30132853D01*
X26463339Y30013714D01*
X26424124Y29884440D01*
X26410883Y29750000D01*
X26414201Y29716312D01*
X26414200Y28520829D01*
X26362868Y28444005D01*
X26300165Y28292627D01*
X26285800Y28220408D01*
X26285800Y32716322D01*
X26289117Y32750001D01*
X26285800Y32783680D01*
X26285800Y32783689D01*
X26275877Y32884440D01*
X26236662Y33013714D01*
X26172981Y33132853D01*
X26172980Y33132855D01*
X26108755Y33211113D01*
X26108749Y33211119D01*
X26087279Y33237280D01*
X26061119Y33258749D01*
X25867860Y33452008D01*
X25849835Y33542627D01*
X25787132Y33694005D01*
X25696101Y33830242D01*
X25580242Y33946101D01*
X25444005Y34037132D01*
X25292627Y34099835D01*
X25131925Y34131800D01*
X24968075Y34131800D01*
X24807373Y34099835D01*
X24655995Y34037132D01*
X24519758Y33946101D01*
X24403899Y33830242D01*
X24312868Y33694005D01*
X24250165Y33542627D01*
X24218200Y33381925D01*
X24218200Y33218075D01*
X24250165Y33057373D01*
X24312868Y32905995D01*
X24403899Y32769758D01*
X24519758Y32653899D01*
X24655995Y32562868D01*
X24807373Y32500165D01*
X24897992Y32482140D01*
X24914200Y32465932D01*
X24914201Y20070830D01*
X24862868Y19994005D01*
X24800165Y19842627D01*
X24782140Y19752007D01*
X21665933Y16635800D01*
X18534068Y16635800D01*
X15735800Y19434067D01*
X15735800Y21335340D01*
X15739118Y21369026D01*
X15734287Y21418075D01*
X15725877Y21503466D01*
X15686662Y21632740D01*
X15622981Y21751879D01*
X15537280Y21856306D01*
X15511109Y21877784D01*
X14127784Y23261109D01*
X14106306Y23287280D01*
X14001879Y23372981D01*
X13882740Y23436662D01*
X13753466Y23475877D01*
X13652715Y23485800D01*
X13652705Y23485800D01*
X13619026Y23489117D01*
X13585347Y23485800D01*
X8914652Y23485800D01*
X8880973Y23489117D01*
X8847294Y23485800D01*
X8847285Y23485800D01*
X8746534Y23475877D01*
X8617260Y23436662D01*
X8498121Y23372981D01*
X8393694Y23287280D01*
X8372221Y23261115D01*
X6238887Y21127780D01*
X6212720Y21106305D01*
X6191247Y21080140D01*
X6191245Y21080138D01*
X6150843Y21030908D01*
X6127019Y21001878D01*
X6063338Y20882739D01*
X6024123Y20753465D01*
X6014200Y20652714D01*
X6014200Y20652705D01*
X6010883Y20619026D01*
X6014200Y20585347D01*
X6014200Y20334067D01*
X3644601Y17964468D01*
X3644601Y20570371D01*
X3695933Y20647194D01*
X3758636Y20798572D01*
X3790601Y20959274D01*
X3790601Y21123124D01*
X3758636Y21283826D01*
X3695933Y21435204D01*
X3604902Y21571441D01*
X3489043Y21687300D01*
X3352806Y21778331D01*
X3201428Y21841034D01*
X3040726Y21872999D01*
X2876876Y21872999D01*
X2716174Y21841034D01*
X2564796Y21778331D01*
X2428559Y21687300D01*
X2312700Y21571441D01*
X2221669Y21435204D01*
X2158966Y21283826D01*
X2127001Y21123124D01*
X2127001Y20959274D01*
X2158966Y20798572D01*
X2221669Y20647194D01*
X2273002Y20570369D01*
X2273002Y17637253D01*
X2242627Y17649835D01*
X2081925Y17681800D01*
X1918075Y17681800D01*
X1757373Y17649835D01*
X1605995Y17587132D01*
X1469758Y17496101D01*
X1353899Y17380242D01*
X1334586Y17351337D01*
X1366292Y22081925D01*
X4168200Y22081925D01*
X4168200Y21918075D01*
X4200165Y21757373D01*
X4262868Y21605995D01*
X4353899Y21469758D01*
X4469758Y21353899D01*
X4605995Y21262868D01*
X4757373Y21200165D01*
X4918075Y21168200D01*
X5081925Y21168200D01*
X5242627Y21200165D01*
X5394005Y21262868D01*
X5530242Y21353899D01*
X5646101Y21469758D01*
X5737132Y21605995D01*
X5799835Y21757373D01*
X5817860Y21847993D01*
X8461114Y24491247D01*
X8487279Y24512720D01*
X8572981Y24617147D01*
X8636662Y24736286D01*
X8675877Y24865560D01*
X8685800Y24966311D01*
X8685800Y24966314D01*
X8689118Y25000000D01*
X8685800Y25033686D01*
X8685800Y28215933D01*
X9784068Y29314200D01*
X17814201Y29314200D01*
X17814200Y25533679D01*
X17810883Y25500000D01*
X17814200Y25466321D01*
X17814200Y25466312D01*
X17824123Y25365561D01*
X17863338Y25236287D01*
X17927019Y25117148D01*
X18012720Y25012721D01*
X18038887Y24991246D01*
X18682140Y24347993D01*
X18700165Y24257373D01*
X18762868Y24105995D01*
X18853899Y23969758D01*
X18969758Y23853899D01*
X19105995Y23762868D01*
X19257373Y23700165D01*
X19418075Y23668200D01*
X19581925Y23668200D01*
X19742627Y23700165D01*
X19894005Y23762868D01*
X20030242Y23853899D01*
X20146101Y23969758D01*
X20237132Y24105995D01*
X20299835Y24257373D01*
X20331800Y24418075D01*
X20331800Y24581925D01*
X20299835Y24742627D01*
X20237132Y24894005D01*
X20146101Y25030242D01*
X20030242Y25146101D01*
X19894005Y25237132D01*
X19742627Y25299835D01*
X19652007Y25317860D01*
X19185800Y25784067D01*
X19185800Y29314200D01*
X19529172Y29314200D01*
X19605995Y29262868D01*
X19757373Y29200165D01*
X19918075Y29168200D01*
X20081925Y29168200D01*
X20242627Y29200165D01*
X20394005Y29262868D01*
X20530242Y29353899D01*
X20646101Y29469758D01*
X20737132Y29605995D01*
X20799835Y29757373D01*
X20831800Y29918075D01*
X20831800Y30081925D01*
X20799835Y30242627D01*
X20737132Y30394005D01*
X20646101Y30530242D01*
X20530242Y30646101D01*
X20394005Y30737132D01*
X20242627Y30799835D01*
X20081925Y30831800D01*
X19918075Y30831800D01*
X19757373Y30799835D01*
X19605995Y30737132D01*
X19529172Y30685800D01*
X18533689Y30685800D01*
X18500000Y30689118D01*
X18466312Y30685800D01*
X9533678Y30685800D01*
X9499999Y30689117D01*
X9466320Y30685800D01*
X9466311Y30685800D01*
X9365560Y30675877D01*
X9236286Y30636662D01*
X9132529Y30581203D01*
X9117145Y30572980D01*
X9065069Y30530242D01*
X9012720Y30487280D01*
X8991247Y30461115D01*
X7538886Y29008753D01*
X7512721Y28987280D01*
X7491248Y28961115D01*
X7491245Y28961112D01*
X7427020Y28882853D01*
X7363339Y28763714D01*
X7324124Y28634440D01*
X7310883Y28500000D01*
X7314201Y28466312D01*
X7314200Y25284067D01*
X4847993Y22817860D01*
X4757373Y22799835D01*
X4605995Y22737132D01*
X4469758Y22646101D01*
X4353899Y22530242D01*
X4262868Y22394005D01*
X4200165Y22242627D01*
X4168200Y22081925D01*
X1366292Y22081925D01*
X1476264Y38489748D01*
X1712410Y38523483D01*
X38673000Y38572764D01*
X38673000Y26233606D01*
%TA.AperFunction,Conductor*%
D13*
G36*
X38673000Y26233606D02*
G01*
X38604171Y9072172D01*
X38530242Y9146101D01*
X38394005Y9237132D01*
X38242627Y9299835D01*
X38081925Y9331800D01*
X37918075Y9331800D01*
X37757373Y9299835D01*
X37605995Y9237132D01*
X37529172Y9185800D01*
X34533686Y9185800D01*
X34500000Y9189118D01*
X34466314Y9185800D01*
X34466311Y9185800D01*
X34365560Y9175877D01*
X34236286Y9136662D01*
X34117147Y9072981D01*
X34012720Y8987280D01*
X33991242Y8961109D01*
X29347993Y4317860D01*
X29257373Y4299835D01*
X29105995Y4237132D01*
X28969758Y4146101D01*
X28853899Y4030242D01*
X28762868Y3894005D01*
X28700165Y3742627D01*
X28668200Y3581925D01*
X28668200Y3418075D01*
X28700165Y3257373D01*
X28712746Y3226999D01*
X27192869Y3226999D01*
X25785800Y4634067D01*
X25785800Y5400522D01*
X25907373Y5350165D01*
X26068075Y5318200D01*
X26231925Y5318200D01*
X26392627Y5350165D01*
X26544005Y5412868D01*
X26680242Y5503899D01*
X26796101Y5619758D01*
X26887132Y5755995D01*
X26949835Y5907373D01*
X26967860Y5997993D01*
X28684067Y7714200D01*
X31779172Y7714200D01*
X31855995Y7662868D01*
X32007373Y7600165D01*
X32168075Y7568200D01*
X32331925Y7568200D01*
X32492627Y7600165D01*
X32644005Y7662868D01*
X32780242Y7753899D01*
X32896101Y7869758D01*
X32987132Y8005995D01*
X33049835Y8157373D01*
X33081800Y8318075D01*
X33081800Y8481925D01*
X33049835Y8642627D01*
X32987132Y8794005D01*
X32896101Y8930242D01*
X32805108Y9021235D01*
X32834440Y9024124D01*
X32963713Y9063339D01*
X33082853Y9127020D01*
X33187279Y9212721D01*
X33272980Y9317147D01*
X33336661Y9436287D01*
X33375876Y9565560D01*
X33389117Y9700001D01*
X33375876Y9834442D01*
X33336661Y9963715D01*
X33272980Y10082855D01*
X33208755Y10161112D01*
X33117860Y10252007D01*
X33099835Y10342627D01*
X33037132Y10494005D01*
X32946101Y10630242D01*
X32830242Y10746101D01*
X32694005Y10837132D01*
X32542627Y10899835D01*
X32381925Y10931800D01*
X32218075Y10931800D01*
X32057373Y10899835D01*
X31905995Y10837132D01*
X31769758Y10746101D01*
X31653899Y10630242D01*
X31562868Y10494005D01*
X31500165Y10342627D01*
X31497056Y10326999D01*
X25325112Y10326999D01*
X25224361Y10317076D01*
X25095087Y10277861D01*
X24975948Y10214180D01*
X24871521Y10128479D01*
X24785820Y10024052D01*
X24722139Y9904913D01*
X24682924Y9775639D01*
X24669683Y9641199D01*
X24682924Y9506759D01*
X24722139Y9377485D01*
X24785820Y9258346D01*
X24839809Y9192560D01*
X24705995Y9137132D01*
X24569758Y9046101D01*
X24453899Y8930242D01*
X24362868Y8794005D01*
X24300165Y8642627D01*
X24268200Y8481925D01*
X24268200Y8318075D01*
X24300165Y8157373D01*
X24362868Y8005995D01*
X24414201Y7929170D01*
X24414200Y4383679D01*
X24410883Y4350000D01*
X24414200Y4316321D01*
X24414200Y4316312D01*
X24424123Y4215561D01*
X24463338Y4086287D01*
X24527019Y3967148D01*
X24612720Y3862721D01*
X24638887Y3841246D01*
X26400048Y2080084D01*
X26421521Y2053919D01*
X26525948Y1968218D01*
X26645087Y1904537D01*
X26774361Y1865322D01*
X26875112Y1855399D01*
X26875115Y1855399D01*
X26908801Y1852081D01*
X26942487Y1855399D01*
X31407520Y1855399D01*
X31441199Y1852082D01*
X31474878Y1855399D01*
X31474888Y1855399D01*
X31575639Y1865322D01*
X31704913Y1904537D01*
X31824052Y1968218D01*
X31928479Y2053919D01*
X31949957Y2080090D01*
X33454067Y3584200D01*
X35643689Y3584200D01*
X35744440Y3594123D01*
X35873714Y3633338D01*
X35992853Y3697019D01*
X36097280Y3782720D01*
X36182981Y3887147D01*
X36246662Y4006286D01*
X36285877Y4135560D01*
X36299118Y4270000D01*
X36285877Y4404440D01*
X36246662Y4533714D01*
X36182981Y4652853D01*
X36097280Y4757280D01*
X35992853Y4842981D01*
X35873714Y4906662D01*
X35744440Y4945877D01*
X35643689Y4955800D01*
X33203686Y4955800D01*
X33170000Y4959118D01*
X33136314Y4955800D01*
X33136311Y4955800D01*
X33035560Y4945877D01*
X32906286Y4906662D01*
X32787147Y4842981D01*
X32682720Y4757280D01*
X32661242Y4731109D01*
X31157132Y3226999D01*
X30287254Y3226999D01*
X30299835Y3257373D01*
X30317860Y3347993D01*
X34784067Y7814200D01*
X37529172Y7814200D01*
X37605995Y7762868D01*
X37757373Y7700165D01*
X37918075Y7668200D01*
X38081925Y7668200D01*
X38242627Y7700165D01*
X38394005Y7762868D01*
X38530242Y7853899D01*
X38599562Y7923219D01*
X38573508Y1427000D01*
X1227854Y1427000D01*
X1314200Y14309859D01*
X1314201Y9333689D01*
X1310883Y9300000D01*
X1314201Y9266311D01*
X1317075Y9237132D01*
X1324124Y9165560D01*
X1363339Y9036286D01*
X1427020Y8917147D01*
X1473007Y8861112D01*
X1512721Y8812720D01*
X1538886Y8791247D01*
X2382140Y7947992D01*
X2400165Y7857373D01*
X2462868Y7705995D01*
X2553899Y7569758D01*
X2669758Y7453899D01*
X2805995Y7362868D01*
X2957373Y7300165D01*
X3118075Y7268200D01*
X3281925Y7268200D01*
X3442627Y7300165D01*
X3594005Y7362868D01*
X3730242Y7453899D01*
X3846101Y7569758D01*
X3937132Y7705995D01*
X3999835Y7857373D01*
X4031800Y8018075D01*
X4031800Y8181925D01*
X3999835Y8342627D01*
X3937132Y8494005D01*
X3846101Y8630242D01*
X3730242Y8746101D01*
X3594005Y8837132D01*
X3442627Y8899835D01*
X3352008Y8917860D01*
X2685800Y9584067D01*
X2685800Y11246845D01*
X2703899Y11219758D01*
X2819758Y11103899D01*
X2955995Y11012868D01*
X3107373Y10950165D01*
X3268075Y10918200D01*
X3431925Y10918200D01*
X3592627Y10950165D01*
X3744005Y11012868D01*
X3880242Y11103899D01*
X3996101Y11219758D01*
X4087132Y11355995D01*
X4149835Y11507373D01*
X4181800Y11668075D01*
X4181800Y11831925D01*
X4149835Y11992627D01*
X4087132Y12144005D01*
X3996101Y12280242D01*
X3880242Y12396101D01*
X3744005Y12487132D01*
X3644601Y12528307D01*
X3644601Y12885532D01*
X10182140Y6347992D01*
X10200165Y6257373D01*
X10262868Y6105995D01*
X10353899Y5969758D01*
X10469758Y5853899D01*
X10605995Y5762868D01*
X10757373Y5700165D01*
X10918075Y5668200D01*
X11081925Y5668200D01*
X11242627Y5700165D01*
X11394005Y5762868D01*
X11530242Y5853899D01*
X11646101Y5969758D01*
X11737132Y6105995D01*
X11799835Y6257373D01*
X11831800Y6418075D01*
X11831800Y6581925D01*
X11799835Y6742627D01*
X11737132Y6894005D01*
X11646101Y7030242D01*
X11530242Y7146101D01*
X11394005Y7237132D01*
X11242627Y7299835D01*
X11152008Y7317860D01*
X4535800Y13934067D01*
X4535800Y15337300D01*
X4647195Y15262868D01*
X4798573Y15200165D01*
X4889193Y15182140D01*
X6032444Y14038888D01*
X6053920Y14012720D01*
X6080085Y13991247D01*
X6080087Y13991245D01*
X6158345Y13927020D01*
X6158347Y13927019D01*
X6277486Y13863338D01*
X6406760Y13824123D01*
X6507511Y13814200D01*
X6507520Y13814200D01*
X6541199Y13810883D01*
X6574878Y13814200D01*
X7029172Y13814200D01*
X7105995Y13762868D01*
X7257373Y13700165D01*
X7418075Y13668200D01*
X7581925Y13668200D01*
X7742627Y13700165D01*
X7894005Y13762868D01*
X8030242Y13853899D01*
X8146101Y13969758D01*
X8237132Y14105995D01*
X8299835Y14257373D01*
X8331800Y14418075D01*
X8331800Y14581925D01*
X8299835Y14742627D01*
X8237132Y14894005D01*
X8146101Y15030242D01*
X8030242Y15146101D01*
X7894005Y15237132D01*
X7742627Y15299835D01*
X7581925Y15331800D01*
X7418075Y15331800D01*
X7257373Y15299835D01*
X7105995Y15237132D01*
X7029172Y15185800D01*
X6825268Y15185800D01*
X5859060Y16152007D01*
X5841035Y16242627D01*
X5778332Y16394005D01*
X5687301Y16530242D01*
X5571442Y16646101D01*
X5435205Y16737132D01*
X5283827Y16799835D01*
X5123125Y16831800D01*
X4959275Y16831800D01*
X4798573Y16799835D01*
X4647195Y16737132D01*
X4535800Y16662700D01*
X4535800Y16915933D01*
X6851792Y19231925D01*
X8468200Y19231925D01*
X8468200Y19068075D01*
X8500165Y18907373D01*
X8562868Y18755995D01*
X8614201Y18679170D01*
X8614200Y16383679D01*
X8610883Y16350000D01*
X8614200Y16316321D01*
X8614200Y16316312D01*
X8624123Y16215561D01*
X8663338Y16086287D01*
X8727019Y15967148D01*
X8812720Y15862721D01*
X8838886Y15841246D01*
X9891244Y14788888D01*
X9912720Y14762720D01*
X10017147Y14677019D01*
X10072604Y14647377D01*
X10136285Y14613338D01*
X10175500Y14601443D01*
X10265560Y14574123D01*
X10365892Y14564241D01*
X21332140Y3597992D01*
X21350165Y3507373D01*
X21412868Y3355995D01*
X21503899Y3219758D01*
X21619758Y3103899D01*
X21755995Y3012868D01*
X21907373Y2950165D01*
X22068075Y2918200D01*
X22231925Y2918200D01*
X22376667Y2946990D01*
X22469758Y2853899D01*
X22605995Y2762868D01*
X22757373Y2700165D01*
X22918075Y2668200D01*
X23081925Y2668200D01*
X23242627Y2700165D01*
X23394005Y2762868D01*
X23530242Y2853899D01*
X23646101Y2969758D01*
X23737132Y3105995D01*
X23799835Y3257373D01*
X23831800Y3418075D01*
X23831800Y3581925D01*
X23799835Y3742627D01*
X23737132Y3894005D01*
X23646101Y4030242D01*
X23530242Y4146101D01*
X23394005Y4237132D01*
X23242627Y4299835D01*
X23081925Y4331800D01*
X22918075Y4331800D01*
X22773333Y4303010D01*
X22680242Y4396101D01*
X22544005Y4487132D01*
X22392627Y4549835D01*
X22302008Y4567860D01*
X12900379Y13969488D01*
X13039653Y13997191D01*
X13191031Y14059894D01*
X13327268Y14150925D01*
X13443127Y14266784D01*
X13534158Y14403021D01*
X13596861Y14554399D01*
X13614886Y14645019D01*
X14652008Y15682140D01*
X14742627Y15700165D01*
X14894005Y15762868D01*
X15030242Y15853899D01*
X15146101Y15969758D01*
X15237132Y16105995D01*
X15299835Y16257373D01*
X15331800Y16418075D01*
X15331800Y16581925D01*
X15299835Y16742627D01*
X15237132Y16894005D01*
X15146101Y17030242D01*
X15030242Y17146101D01*
X14894005Y17237132D01*
X14742627Y17299835D01*
X14581925Y17331800D01*
X14418075Y17331800D01*
X14257373Y17299835D01*
X14105995Y17237132D01*
X13969758Y17146101D01*
X13853899Y17030242D01*
X13762868Y16894005D01*
X13700165Y16742627D01*
X13682140Y16652008D01*
X12645019Y15614886D01*
X12554399Y15596861D01*
X12403021Y15534158D01*
X12266784Y15443127D01*
X12150925Y15327268D01*
X12059894Y15191031D01*
X11997191Y15039653D01*
X11969488Y14900379D01*
X11158758Y15711109D01*
X11137280Y15737280D01*
X11032853Y15822981D01*
X10913714Y15886662D01*
X10784440Y15925877D01*
X10684109Y15935759D01*
X9985800Y16634067D01*
X9985800Y18679172D01*
X10037132Y18755995D01*
X10099835Y18907373D01*
X10131800Y19068075D01*
X10131800Y19231925D01*
X10099835Y19392627D01*
X10037132Y19544005D01*
X9946101Y19680242D01*
X9830242Y19796101D01*
X9694005Y19887132D01*
X9542627Y19949835D01*
X9381925Y19981800D01*
X9218075Y19981800D01*
X9057373Y19949835D01*
X8905995Y19887132D01*
X8769758Y19796101D01*
X8653899Y19680242D01*
X8562868Y19544005D01*
X8500165Y19392627D01*
X8468200Y19231925D01*
X6851792Y19231925D01*
X7161109Y19541242D01*
X7187280Y19562720D01*
X7272981Y19667147D01*
X7336662Y19786286D01*
X7375877Y19915560D01*
X7385800Y20016311D01*
X7385800Y20016314D01*
X7389118Y20050000D01*
X7385800Y20083686D01*
X7385800Y20334959D01*
X8231812Y21180971D01*
X8262868Y21105995D01*
X8353899Y20969758D01*
X8469758Y20853899D01*
X8605995Y20762868D01*
X8757373Y20700165D01*
X8918075Y20668200D01*
X9081925Y20668200D01*
X9242627Y20700165D01*
X9394005Y20762868D01*
X9470828Y20814200D01*
X13029172Y20814200D01*
X13105995Y20762868D01*
X13257373Y20700165D01*
X13418075Y20668200D01*
X13581925Y20668200D01*
X13742627Y20700165D01*
X13894005Y20762868D01*
X14030242Y20853899D01*
X14146101Y20969758D01*
X14237132Y21105995D01*
X14268188Y21180971D01*
X14364201Y21084958D01*
X14364200Y19183679D01*
X14360883Y19150000D01*
X14364200Y19116321D01*
X14364200Y19116312D01*
X14374123Y19015561D01*
X14413338Y18886287D01*
X14477019Y18767148D01*
X14562720Y18662721D01*
X14588887Y18641246D01*
X17741247Y15488885D01*
X17762720Y15462720D01*
X17788885Y15441247D01*
X17788887Y15441245D01*
X17867145Y15377020D01*
X17867147Y15377019D01*
X17986286Y15313338D01*
X18115560Y15274123D01*
X18216311Y15264200D01*
X18216320Y15264200D01*
X18249999Y15260883D01*
X18283678Y15264200D01*
X21671343Y15264200D01*
X21605995Y15237132D01*
X21469758Y15146101D01*
X21353899Y15030242D01*
X21262868Y14894005D01*
X21200165Y14742627D01*
X21168200Y14581925D01*
X21168200Y14418075D01*
X21200165Y14257373D01*
X21229812Y14185800D01*
X18970828Y14185800D01*
X18894005Y14237132D01*
X18742627Y14299835D01*
X18581925Y14331800D01*
X18418075Y14331800D01*
X18257373Y14299835D01*
X18105995Y14237132D01*
X17969758Y14146101D01*
X17853899Y14030242D01*
X17762868Y13894005D01*
X17700165Y13742627D01*
X17668200Y13581925D01*
X17668200Y13418075D01*
X17700165Y13257373D01*
X17762868Y13105995D01*
X17853899Y12969758D01*
X17969758Y12853899D01*
X18105995Y12762868D01*
X18257373Y12700165D01*
X18418075Y12668200D01*
X18581925Y12668200D01*
X18742627Y12700165D01*
X18894005Y12762868D01*
X18970828Y12814200D01*
X21800522Y12814200D01*
X21750165Y12692627D01*
X21732140Y12602008D01*
X20696749Y11566616D01*
X18494575Y11566616D01*
X18417752Y11617948D01*
X18266374Y11680651D01*
X18105672Y11712616D01*
X17941822Y11712616D01*
X17781120Y11680651D01*
X17629742Y11617948D01*
X17493505Y11526917D01*
X17377646Y11411058D01*
X17286615Y11274821D01*
X17223912Y11123443D01*
X17191947Y10962741D01*
X17191947Y10798891D01*
X17223912Y10638189D01*
X17286615Y10486811D01*
X17377646Y10350574D01*
X17493505Y10234715D01*
X17629742Y10143684D01*
X17781120Y10080981D01*
X17941822Y10049016D01*
X18105672Y10049016D01*
X18266374Y10080981D01*
X18417752Y10143684D01*
X18494575Y10195016D01*
X20947137Y10195016D01*
X20980816Y10191699D01*
X21014495Y10195016D01*
X21014505Y10195016D01*
X21115256Y10204939D01*
X21244530Y10244154D01*
X21363669Y10307835D01*
X21468096Y10393536D01*
X21489574Y10419707D01*
X22702008Y11632140D01*
X22792627Y11650165D01*
X22944005Y11712868D01*
X23080242Y11803899D01*
X23196101Y11919758D01*
X23287132Y12055995D01*
X23349835Y12207373D01*
X23381800Y12368075D01*
X23381800Y12531925D01*
X23349835Y12692627D01*
X23299478Y12814200D01*
X26029172Y12814200D01*
X26105995Y12762868D01*
X26257373Y12700165D01*
X26418075Y12668200D01*
X26581925Y12668200D01*
X26742627Y12700165D01*
X26894005Y12762868D01*
X27030242Y12853899D01*
X27146101Y12969758D01*
X27237132Y13105995D01*
X27299835Y13257373D01*
X27331800Y13418075D01*
X27331800Y13581925D01*
X27299835Y13742627D01*
X27270188Y13814200D01*
X29188862Y13814200D01*
X29200165Y13757373D01*
X29262868Y13605995D01*
X29353899Y13469758D01*
X29469758Y13353899D01*
X29605995Y13262868D01*
X29757373Y13200165D01*
X29918075Y13168200D01*
X30081925Y13168200D01*
X30242627Y13200165D01*
X30394005Y13262868D01*
X30530242Y13353899D01*
X30646101Y13469758D01*
X30737132Y13605995D01*
X30799835Y13757373D01*
X30831800Y13918075D01*
X30831800Y14081925D01*
X30799835Y14242627D01*
X30737132Y14394005D01*
X30646101Y14530242D01*
X30530242Y14646101D01*
X30394005Y14737132D01*
X30242627Y14799835D01*
X30152007Y14817860D01*
X30008758Y14961109D01*
X29987280Y14987280D01*
X29882853Y15072981D01*
X29763714Y15136662D01*
X29634440Y15175877D01*
X29533689Y15185800D01*
X29533679Y15185800D01*
X29500000Y15189117D01*
X29466321Y15185800D01*
X29179208Y15185800D01*
X29251427Y15200165D01*
X29402805Y15262868D01*
X29539042Y15353899D01*
X29654901Y15469758D01*
X29745932Y15605995D01*
X29808635Y15757373D01*
X29840600Y15918075D01*
X29840600Y16081925D01*
X29808635Y16242627D01*
X29745932Y16394005D01*
X29654901Y16530242D01*
X29539042Y16646101D01*
X29402805Y16737132D01*
X29251427Y16799835D01*
X29090725Y16831800D01*
X28926875Y16831800D01*
X28766173Y16799835D01*
X28614795Y16737132D01*
X28537972Y16685800D01*
X27470828Y16685800D01*
X27394005Y16737132D01*
X27242627Y16799835D01*
X27081925Y16831800D01*
X26918075Y16831800D01*
X26757373Y16799835D01*
X26605995Y16737132D01*
X26469758Y16646101D01*
X26353899Y16530242D01*
X26262868Y16394005D01*
X26200165Y16242627D01*
X26168200Y16081925D01*
X26168200Y15918075D01*
X26200165Y15757373D01*
X26262868Y15605995D01*
X26353899Y15469758D01*
X26469758Y15353899D01*
X26605995Y15262868D01*
X26757373Y15200165D01*
X26829592Y15185800D01*
X22470828Y15185800D01*
X22394005Y15237132D01*
X22242627Y15299835D01*
X22198280Y15308656D01*
X22213714Y15313338D01*
X22332853Y15377019D01*
X22437280Y15462720D01*
X22458758Y15488891D01*
X25752007Y18782140D01*
X25842627Y18800165D01*
X25994005Y18862868D01*
X26130242Y18953899D01*
X26246101Y19069758D01*
X26337132Y19205995D01*
X26399835Y19357373D01*
X26431800Y19518075D01*
X26431800Y19681925D01*
X26399835Y19842627D01*
X26337132Y19994005D01*
X26285800Y20070828D01*
X26285800Y27879592D01*
X26300165Y27807373D01*
X26362868Y27655995D01*
X26453899Y27519758D01*
X26569758Y27403899D01*
X26705995Y27312868D01*
X26857373Y27250165D01*
X27018075Y27218200D01*
X27181925Y27218200D01*
X27342627Y27250165D01*
X27494005Y27312868D01*
X27630242Y27403899D01*
X27746101Y27519758D01*
X27837132Y27655995D01*
X27899835Y27807373D01*
X27931800Y27968075D01*
X27931800Y28131925D01*
X27899835Y28292627D01*
X27837132Y28444005D01*
X27785800Y28520828D01*
X27785800Y29465933D01*
X29302007Y30982140D01*
X29392627Y31000165D01*
X29544005Y31062868D01*
X29680242Y31153899D01*
X29796101Y31269758D01*
X29887132Y31405995D01*
X29949835Y31557373D01*
X29981800Y31718075D01*
X29981800Y31881925D01*
X29949835Y32042627D01*
X29887132Y32194005D01*
X29796101Y32330242D01*
X29680242Y32446101D01*
X29544005Y32537132D01*
X29392627Y32599835D01*
X29231925Y32631800D01*
X29068075Y32631800D01*
X28907373Y32599835D01*
X28755995Y32537132D01*
X28619758Y32446101D01*
X28503899Y32330242D01*
X28412868Y32194005D01*
X28350165Y32042627D01*
X28332140Y31952007D01*
X26638886Y30258753D01*
X26612721Y30237280D01*
X26591248Y30211115D01*
X26591245Y30211112D01*
X26527020Y30132853D01*
X26463339Y30013714D01*
X26424124Y29884440D01*
X26410883Y29750000D01*
X26414201Y29716312D01*
X26414200Y28520829D01*
X26362868Y28444005D01*
X26300165Y28292627D01*
X26285800Y28220408D01*
X26285800Y32716322D01*
X26289117Y32750001D01*
X26285800Y32783680D01*
X26285800Y32783689D01*
X26275877Y32884440D01*
X26236662Y33013714D01*
X26172981Y33132853D01*
X26172980Y33132855D01*
X26108755Y33211113D01*
X26108749Y33211119D01*
X26087279Y33237280D01*
X26061119Y33258749D01*
X25867860Y33452008D01*
X25849835Y33542627D01*
X25787132Y33694005D01*
X25696101Y33830242D01*
X25580242Y33946101D01*
X25444005Y34037132D01*
X25292627Y34099835D01*
X25131925Y34131800D01*
X24968075Y34131800D01*
X24807373Y34099835D01*
X24655995Y34037132D01*
X24519758Y33946101D01*
X24403899Y33830242D01*
X24312868Y33694005D01*
X24250165Y33542627D01*
X24218200Y33381925D01*
X24218200Y33218075D01*
X24250165Y33057373D01*
X24312868Y32905995D01*
X24403899Y32769758D01*
X24519758Y32653899D01*
X24655995Y32562868D01*
X24807373Y32500165D01*
X24897992Y32482140D01*
X24914200Y32465932D01*
X24914201Y20070830D01*
X24862868Y19994005D01*
X24800165Y19842627D01*
X24782140Y19752007D01*
X21665933Y16635800D01*
X18534068Y16635800D01*
X15735800Y19434067D01*
X15735800Y21335340D01*
X15739118Y21369026D01*
X15734287Y21418075D01*
X15725877Y21503466D01*
X15686662Y21632740D01*
X15622981Y21751879D01*
X15537280Y21856306D01*
X15511109Y21877784D01*
X14127784Y23261109D01*
X14106306Y23287280D01*
X14001879Y23372981D01*
X13882740Y23436662D01*
X13753466Y23475877D01*
X13652715Y23485800D01*
X13652705Y23485800D01*
X13619026Y23489117D01*
X13585347Y23485800D01*
X8914652Y23485800D01*
X8880973Y23489117D01*
X8847294Y23485800D01*
X8847285Y23485800D01*
X8746534Y23475877D01*
X8617260Y23436662D01*
X8498121Y23372981D01*
X8393694Y23287280D01*
X8372221Y23261115D01*
X6238887Y21127780D01*
X6212720Y21106305D01*
X6191247Y21080140D01*
X6191245Y21080138D01*
X6150843Y21030908D01*
X6127019Y21001878D01*
X6063338Y20882739D01*
X6024123Y20753465D01*
X6014200Y20652714D01*
X6014200Y20652705D01*
X6010883Y20619026D01*
X6014200Y20585347D01*
X6014200Y20334067D01*
X3644601Y17964468D01*
X3644601Y20570371D01*
X3695933Y20647194D01*
X3758636Y20798572D01*
X3790601Y20959274D01*
X3790601Y21123124D01*
X3758636Y21283826D01*
X3695933Y21435204D01*
X3604902Y21571441D01*
X3489043Y21687300D01*
X3352806Y21778331D01*
X3201428Y21841034D01*
X3040726Y21872999D01*
X2876876Y21872999D01*
X2716174Y21841034D01*
X2564796Y21778331D01*
X2428559Y21687300D01*
X2312700Y21571441D01*
X2221669Y21435204D01*
X2158966Y21283826D01*
X2127001Y21123124D01*
X2127001Y20959274D01*
X2158966Y20798572D01*
X2221669Y20647194D01*
X2273002Y20570369D01*
X2273002Y17637253D01*
X2242627Y17649835D01*
X2081925Y17681800D01*
X1918075Y17681800D01*
X1757373Y17649835D01*
X1605995Y17587132D01*
X1469758Y17496101D01*
X1353899Y17380242D01*
X1334586Y17351337D01*
X1366292Y22081925D01*
X4168200Y22081925D01*
X4168200Y21918075D01*
X4200165Y21757373D01*
X4262868Y21605995D01*
X4353899Y21469758D01*
X4469758Y21353899D01*
X4605995Y21262868D01*
X4757373Y21200165D01*
X4918075Y21168200D01*
X5081925Y21168200D01*
X5242627Y21200165D01*
X5394005Y21262868D01*
X5530242Y21353899D01*
X5646101Y21469758D01*
X5737132Y21605995D01*
X5799835Y21757373D01*
X5817860Y21847993D01*
X8461114Y24491247D01*
X8487279Y24512720D01*
X8572981Y24617147D01*
X8636662Y24736286D01*
X8675877Y24865560D01*
X8685800Y24966311D01*
X8685800Y24966314D01*
X8689118Y25000000D01*
X8685800Y25033686D01*
X8685800Y28215933D01*
X9784068Y29314200D01*
X17814201Y29314200D01*
X17814200Y25533679D01*
X17810883Y25500000D01*
X17814200Y25466321D01*
X17814200Y25466312D01*
X17824123Y25365561D01*
X17863338Y25236287D01*
X17927019Y25117148D01*
X18012720Y25012721D01*
X18038887Y24991246D01*
X18682140Y24347993D01*
X18700165Y24257373D01*
X18762868Y24105995D01*
X18853899Y23969758D01*
X18969758Y23853899D01*
X19105995Y23762868D01*
X19257373Y23700165D01*
X19418075Y23668200D01*
X19581925Y23668200D01*
X19742627Y23700165D01*
X19894005Y23762868D01*
X20030242Y23853899D01*
X20146101Y23969758D01*
X20237132Y24105995D01*
X20299835Y24257373D01*
X20331800Y24418075D01*
X20331800Y24581925D01*
X20299835Y24742627D01*
X20237132Y24894005D01*
X20146101Y25030242D01*
X20030242Y25146101D01*
X19894005Y25237132D01*
X19742627Y25299835D01*
X19652007Y25317860D01*
X19185800Y25784067D01*
X19185800Y29314200D01*
X19529172Y29314200D01*
X19605995Y29262868D01*
X19757373Y29200165D01*
X19918075Y29168200D01*
X20081925Y29168200D01*
X20242627Y29200165D01*
X20394005Y29262868D01*
X20530242Y29353899D01*
X20646101Y29469758D01*
X20737132Y29605995D01*
X20799835Y29757373D01*
X20831800Y29918075D01*
X20831800Y30081925D01*
X20799835Y30242627D01*
X20737132Y30394005D01*
X20646101Y30530242D01*
X20530242Y30646101D01*
X20394005Y30737132D01*
X20242627Y30799835D01*
X20081925Y30831800D01*
X19918075Y30831800D01*
X19757373Y30799835D01*
X19605995Y30737132D01*
X19529172Y30685800D01*
X18533689Y30685800D01*
X18500000Y30689118D01*
X18466312Y30685800D01*
X9533678Y30685800D01*
X9499999Y30689117D01*
X9466320Y30685800D01*
X9466311Y30685800D01*
X9365560Y30675877D01*
X9236286Y30636662D01*
X9132529Y30581203D01*
X9117145Y30572980D01*
X9065069Y30530242D01*
X9012720Y30487280D01*
X8991247Y30461115D01*
X7538886Y29008753D01*
X7512721Y28987280D01*
X7491248Y28961115D01*
X7491245Y28961112D01*
X7427020Y28882853D01*
X7363339Y28763714D01*
X7324124Y28634440D01*
X7310883Y28500000D01*
X7314201Y28466312D01*
X7314200Y25284067D01*
X4847993Y22817860D01*
X4757373Y22799835D01*
X4605995Y22737132D01*
X4469758Y22646101D01*
X4353899Y22530242D01*
X4262868Y22394005D01*
X4200165Y22242627D01*
X4168200Y22081925D01*
X1366292Y22081925D01*
X1476264Y38489748D01*
X1712410Y38523483D01*
X38673000Y38572764D01*
X38673000Y26233606D01*
G37*
%TD.AperFunction*%
%TD*%
M02*
