M48
; DRILL file {KiCad (5.1.10)-1} date 12/12/21 15:32:57
; FORMAT={-:-/ absolute / metric / decimal}
; #@! TF.CreationDate,2021-12-12T15:32:57+02:00
; #@! TF.GenerationSoftware,Kicad,Pcbnew,(5.1.10)-1
FMAT,2
METRIC
T1C0.400
%
G90
G05
T1
X2.0Y16.85
X2.6Y29.0
X2.959Y21.041
X3.2Y8.1
X3.35Y11.75
X5.0Y22.0
X5.041Y16.0
X5.5Y29.0
X6.3Y36.4
X6.8Y37.6
X6.8Y35.3
X7.5Y14.5
X8.0Y38.1
X8.0Y35.0
X9.0Y21.5
X9.1Y35.3
X9.2Y37.8
X9.3Y19.15
X9.5Y36.4
X10.05Y28.35
X11.0Y6.5
X12.797Y14.797
X12.95Y28.25
X13.5Y21.5
X14.5Y16.5
X14.85Y28.45
X16.4Y32.0
X16.5Y37.55
X17.1Y28.7
X17.35Y36.1
X17.6Y33.5
X18.024Y10.881
X18.5Y13.5
X19.5Y24.5
X20.0Y30.0
X21.65Y28.55
X22.0Y14.5
X22.15Y3.75
X22.55Y12.45
X22.55Y12.45
X23.0Y3.5
X23.25Y28.45
X23.95Y27.6
X24.4Y20.05
X25.05Y33.3
X25.1Y8.4
X25.6Y19.6
X26.15Y6.15
X26.5Y13.5
X26.65Y25.55
X27.0Y24.45
X27.0Y16.0
X27.1Y28.05
X27.1Y26.7
X27.65Y9.35
X28.45Y10.6
X29.009Y16.0
X29.15Y31.8
X29.35Y17.55
X29.35Y11.4
X29.5Y3.5
X30.0Y14.0
X30.5Y17.7
X32.25Y8.4
X32.3Y10.1
X32.7Y23.15
X33.65Y25.75
X33.75Y23.6
X34.0Y24.8
X38.0Y8.5
T0
M30
