%TF.GenerationSoftware,KiCad,Pcbnew,(5.1.10)-1*%
%TF.CreationDate,2022-01-22T10:46:06+02:00*%
%TF.ProjectId,P1_DCE_NEATA_ADRIAN_STAB_ERS_kicad,50315f44-4345-45f4-9e45-4154415f4144,rev?*%
%TF.SameCoordinates,Original*%
%TF.FileFunction,Soldermask,Bot*%
%TF.FilePolarity,Negative*%
%FSLAX46Y46*%
G04 Gerber Fmt 4.6, Leading zero omitted, Abs format (unit mm)*
G04 Created by KiCad (PCBNEW (5.1.10)-1) date 2022-01-22 10:46:06*
%MOMM*%
%LPD*%
G01*
G04 APERTURE LIST*
%ADD10C,0.800000*%
G04 APERTURE END LIST*
D10*
X25600000Y19600000D03*
X25050000Y33300000D03*
X11000000Y6500000D03*
X27100000Y28050000D03*
X22550000Y12450000D03*
X18023747Y10880816D03*
X27650000Y9350000D03*
X25100000Y8400000D03*
X32300000Y10100000D03*
X22550000Y12450000D03*
X2000000Y16850000D03*
X3200000Y8100000D03*
X29150000Y31800000D03*
X2600000Y29000000D03*
X5500000Y29000000D03*
X10050000Y28350000D03*
X14850000Y28450000D03*
X12950000Y28250000D03*
X17100000Y28700000D03*
X21650000Y28550000D03*
X30500000Y17700000D03*
X28450000Y10600000D03*
X29350000Y11400000D03*
X24400000Y20050000D03*
X26650000Y25550000D03*
X29350000Y17550000D03*
X27000000Y24450000D03*
X27100000Y26700000D03*
X23250000Y28450000D03*
X23950000Y27600000D03*
X16500000Y37550000D03*
X16400000Y32000000D03*
X17350000Y36100000D03*
X17600000Y33500000D03*
X33650000Y25750000D03*
X34000000Y24800000D03*
X32700000Y23150000D03*
X33750000Y23600000D03*
X6300000Y36400000D03*
X8000000Y38100000D03*
X8000000Y35000000D03*
X9500000Y36400000D03*
X6800000Y35300000D03*
X6800000Y37600000D03*
X9200000Y37800000D03*
X9100000Y35300000D03*
X20000000Y30000000D03*
X5000000Y22000000D03*
X19500000Y24500000D03*
X7500000Y14500000D03*
X5041200Y16000000D03*
X3350000Y11750000D03*
X2958801Y21041199D03*
X23000000Y3500000D03*
X22150000Y3750000D03*
X9300000Y19150000D03*
X32250000Y8400000D03*
X26150000Y6150000D03*
X13500000Y21500000D03*
X9000000Y21500000D03*
X18500000Y13500000D03*
X26500000Y13500000D03*
X14500000Y16500000D03*
X12797026Y14797026D03*
X29500000Y3500000D03*
X38000000Y8500000D03*
X27000000Y16000000D03*
X29008800Y16000000D03*
X30000000Y14000000D03*
X22000000Y14500000D03*
M02*
